<mxfile host="Electron" modified="2025-04-27T01:57:16.595Z" agent="Mozilla/5.0 (Windows NT 10.0; Win64; x64) AppleWebKit/537.36 (KHTML, like Gecko) draw.io/24.2.5 Chrome/120.0.6099.109 Electron/28.1.0 Safari/537.36" etag="nKWmy-qqjAAsUde-XC9P" version="24.2.5" type="device" pages="2">
  <diagram id="voL4JPhudsW3p_Vl0C0G" name="PÃ¡gina-2">
    <mxGraphModel dx="1759" dy="1043" grid="1" gridSize="10" guides="1" tooltips="1" connect="1" arrows="1" fold="1" page="1" pageScale="1" pageWidth="850" pageHeight="1100" math="0" shadow="0">
      <root>
        <mxCell id="0" />
        <mxCell id="1" parent="0" />
        <mxCell id="PUE3MmPvDEq1YMyof1YS-3" value="id_Producto" style="ellipse;whiteSpace=wrap;html=1;align=center;strokeWidth=3;" parent="1" vertex="1">
          <mxGeometry x="302" y="122" width="100" height="40" as="geometry" />
        </mxCell>
        <mxCell id="PUE3MmPvDEq1YMyof1YS-18" style="rounded=0;orthogonalLoop=1;jettySize=auto;html=1;endArrow=none;endFill=0;" parent="1" source="PUE3MmPvDEq1YMyof1YS-4" target="PUE3MmPvDEq1YMyof1YS-6" edge="1">
          <mxGeometry relative="1" as="geometry" />
        </mxCell>
        <mxCell id="PUE3MmPvDEq1YMyof1YS-19" style="rounded=0;orthogonalLoop=1;jettySize=auto;html=1;endArrow=none;endFill=0;" parent="1" source="PUE3MmPvDEq1YMyof1YS-4" target="PUE3MmPvDEq1YMyof1YS-7" edge="1">
          <mxGeometry relative="1" as="geometry" />
        </mxCell>
        <mxCell id="PUE3MmPvDEq1YMyof1YS-20" style="rounded=0;orthogonalLoop=1;jettySize=auto;html=1;endArrow=none;endFill=0;" parent="1" source="PUE3MmPvDEq1YMyof1YS-4" target="PUE3MmPvDEq1YMyof1YS-3" edge="1">
          <mxGeometry relative="1" as="geometry" />
        </mxCell>
        <mxCell id="PUE3MmPvDEq1YMyof1YS-26" style="rounded=0;orthogonalLoop=1;jettySize=auto;html=1;endArrow=none;endFill=0;" parent="1" source="PUE3MmPvDEq1YMyof1YS-4" target="PUE3MmPvDEq1YMyof1YS-25" edge="1">
          <mxGeometry relative="1" as="geometry" />
        </mxCell>
        <mxCell id="PUE3MmPvDEq1YMyof1YS-32" style="rounded=0;orthogonalLoop=1;jettySize=auto;html=1;endArrow=none;endFill=0;" parent="1" source="PUE3MmPvDEq1YMyof1YS-4" target="PUE3MmPvDEq1YMyof1YS-31" edge="1">
          <mxGeometry relative="1" as="geometry" />
        </mxCell>
        <mxCell id="PUE3MmPvDEq1YMyof1YS-35" style="rounded=0;orthogonalLoop=1;jettySize=auto;html=1;endArrow=none;endFill=0;" parent="1" source="PUE3MmPvDEq1YMyof1YS-4" target="PUE3MmPvDEq1YMyof1YS-34" edge="1">
          <mxGeometry relative="1" as="geometry" />
        </mxCell>
        <mxCell id="PUE3MmPvDEq1YMyof1YS-4" value="PRODUCTO" style="whiteSpace=wrap;html=1;align=center;" parent="1" vertex="1">
          <mxGeometry x="152" y="75" width="100" height="40" as="geometry" />
        </mxCell>
        <mxCell id="PUE3MmPvDEq1YMyof1YS-6" value="Nombre_Prod" style="ellipse;whiteSpace=wrap;html=1;align=center;" parent="1" vertex="1">
          <mxGeometry x="152" y="2" width="100" height="40" as="geometry" />
        </mxCell>
        <mxCell id="PUE3MmPvDEq1YMyof1YS-7" value="Fecha_Exp" style="ellipse;whiteSpace=wrap;html=1;align=center;" parent="1" vertex="1">
          <mxGeometry x="262" y="12" width="100" height="40" as="geometry" />
        </mxCell>
        <mxCell id="PUE3MmPvDEq1YMyof1YS-21" style="rounded=0;orthogonalLoop=1;jettySize=auto;html=1;endArrow=none;endFill=0;" parent="1" source="PUE3MmPvDEq1YMyof1YS-12" target="PUE3MmPvDEq1YMyof1YS-14" edge="1">
          <mxGeometry relative="1" as="geometry" />
        </mxCell>
        <mxCell id="PUE3MmPvDEq1YMyof1YS-22" style="rounded=0;orthogonalLoop=1;jettySize=auto;html=1;endArrow=none;endFill=0;" parent="1" source="PUE3MmPvDEq1YMyof1YS-12" target="PUE3MmPvDEq1YMyof1YS-17" edge="1">
          <mxGeometry relative="1" as="geometry" />
        </mxCell>
        <mxCell id="PUE3MmPvDEq1YMyof1YS-24" style="rounded=0;orthogonalLoop=1;jettySize=auto;html=1;endArrow=none;endFill=0;" parent="1" source="PUE3MmPvDEq1YMyof1YS-12" target="PUE3MmPvDEq1YMyof1YS-23" edge="1">
          <mxGeometry relative="1" as="geometry" />
        </mxCell>
        <mxCell id="PUE3MmPvDEq1YMyof1YS-12" value="LABORATORIO" style="whiteSpace=wrap;html=1;align=center;" parent="1" vertex="1">
          <mxGeometry x="557" y="65" width="100" height="40" as="geometry" />
        </mxCell>
        <mxCell id="PUE3MmPvDEq1YMyof1YS-14" value="idProducto" style="ellipse;whiteSpace=wrap;html=1;align=center;strokeWidth=3;" parent="1" vertex="1">
          <mxGeometry x="442" y="2" width="100" height="40" as="geometry" />
        </mxCell>
        <mxCell id="PUE3MmPvDEq1YMyof1YS-17" value="Nombre_Prod" style="ellipse;whiteSpace=wrap;html=1;align=center;" parent="1" vertex="1">
          <mxGeometry x="557" y="2" width="100" height="40" as="geometry" />
        </mxCell>
        <mxCell id="PUE3MmPvDEq1YMyof1YS-23" value="Pais_origen" style="ellipse;whiteSpace=wrap;html=1;align=center;" parent="1" vertex="1">
          <mxGeometry x="677" y="2" width="100" height="40" as="geometry" />
        </mxCell>
        <mxCell id="PUE3MmPvDEq1YMyof1YS-25" value="Presentacion" style="ellipse;whiteSpace=wrap;html=1;align=center;" parent="1" vertex="1">
          <mxGeometry x="302" y="62" width="100" height="40" as="geometry" />
        </mxCell>
        <mxCell id="PUE3MmPvDEq1YMyof1YS-31" value="Precio" style="ellipse;whiteSpace=wrap;html=1;align=center;" parent="1" vertex="1">
          <mxGeometry x="42" y="22" width="100" height="40" as="geometry" />
        </mxCell>
        <mxCell id="PUE3MmPvDEq1YMyof1YS-34" value="Stock" style="ellipse;whiteSpace=wrap;html=1;align=center;" parent="1" vertex="1">
          <mxGeometry x="2" y="82" width="100" height="40" as="geometry" />
        </mxCell>
        <mxCell id="PUE3MmPvDEq1YMyof1YS-53" style="rounded=0;orthogonalLoop=1;jettySize=auto;html=1;endArrow=none;endFill=0;" parent="1" edge="1">
          <mxGeometry relative="1" as="geometry">
            <mxPoint x="578.5889272687364" y="210" as="sourcePoint" />
            <mxPoint x="550.2413682164952" y="196.9399407714584" as="targetPoint" />
          </mxGeometry>
        </mxCell>
        <mxCell id="PUE3MmPvDEq1YMyof1YS-54" style="rounded=0;orthogonalLoop=1;jettySize=auto;html=1;endArrow=none;endFill=0;" parent="1" source="PUE3MmPvDEq1YMyof1YS-48" target="PUE3MmPvDEq1YMyof1YS-50" edge="1">
          <mxGeometry relative="1" as="geometry" />
        </mxCell>
        <mxCell id="PUE3MmPvDEq1YMyof1YS-55" style="rounded=0;orthogonalLoop=1;jettySize=auto;html=1;endArrow=none;endFill=0;" parent="1" source="PUE3MmPvDEq1YMyof1YS-48" target="PUE3MmPvDEq1YMyof1YS-51" edge="1">
          <mxGeometry relative="1" as="geometry" />
        </mxCell>
        <mxCell id="PUE3MmPvDEq1YMyof1YS-48" value="CLIENTE" style="whiteSpace=wrap;html=1;align=center;" parent="1" vertex="1">
          <mxGeometry x="562" y="210" width="100" height="40" as="geometry" />
        </mxCell>
        <mxCell id="PUE3MmPvDEq1YMyof1YS-49" value="id_Cliente" style="ellipse;whiteSpace=wrap;html=1;align=center;strokeWidth=3;" parent="1" vertex="1">
          <mxGeometry x="457" y="162" width="100" height="40" as="geometry" />
        </mxCell>
        <mxCell id="PUE3MmPvDEq1YMyof1YS-50" value="Nombre" style="ellipse;whiteSpace=wrap;html=1;align=center;" parent="1" vertex="1">
          <mxGeometry x="562" y="122" width="100" height="40" as="geometry" />
        </mxCell>
        <mxCell id="PUE3MmPvDEq1YMyof1YS-51" value="CI / NIT" style="ellipse;whiteSpace=wrap;html=1;align=center;" parent="1" vertex="1">
          <mxGeometry x="677" y="162" width="100" height="40" as="geometry" />
        </mxCell>
        <mxCell id="TbHaH5Ds3cbBmDt9sqUb-19" value="Fecha" style="ellipse;whiteSpace=wrap;html=1;align=center;" parent="1" vertex="1">
          <mxGeometry x="694.5" y="438" width="100" height="40" as="geometry" />
        </mxCell>
        <mxCell id="TbHaH5Ds3cbBmDt9sqUb-20" value="Total" style="ellipse;whiteSpace=wrap;html=1;align=center;" parent="1" vertex="1">
          <mxGeometry x="575" y="480" width="100" height="40" as="geometry" />
        </mxCell>
        <mxCell id="TbHaH5Ds3cbBmDt9sqUb-23" style="rounded=0;orthogonalLoop=1;jettySize=auto;html=1;endArrow=none;endFill=0;" parent="1" source="TbHaH5Ds3cbBmDt9sqUb-27" target="TbHaH5Ds3cbBmDt9sqUb-28" edge="1">
          <mxGeometry relative="1" as="geometry" />
        </mxCell>
        <mxCell id="TbHaH5Ds3cbBmDt9sqUb-39" style="rounded=0;orthogonalLoop=1;jettySize=auto;html=1;endArrow=none;endFill=0;" parent="1" source="TbHaH5Ds3cbBmDt9sqUb-27" target="TbHaH5Ds3cbBmDt9sqUb-32" edge="1">
          <mxGeometry relative="1" as="geometry" />
        </mxCell>
        <mxCell id="TbHaH5Ds3cbBmDt9sqUb-40" style="rounded=0;orthogonalLoop=1;jettySize=auto;html=1;endArrow=none;endFill=0;" parent="1" source="TbHaH5Ds3cbBmDt9sqUb-27" target="TbHaH5Ds3cbBmDt9sqUb-34" edge="1">
          <mxGeometry relative="1" as="geometry" />
        </mxCell>
        <mxCell id="TbHaH5Ds3cbBmDt9sqUb-41" style="rounded=0;orthogonalLoop=1;jettySize=auto;html=1;endArrow=none;endFill=0;" parent="1" source="TbHaH5Ds3cbBmDt9sqUb-27" target="TbHaH5Ds3cbBmDt9sqUb-36" edge="1">
          <mxGeometry relative="1" as="geometry" />
        </mxCell>
        <mxCell id="TbHaH5Ds3cbBmDt9sqUb-27" value="DetalleVenta" style="whiteSpace=wrap;html=1;align=center;" parent="1" vertex="1">
          <mxGeometry x="197.5" y="322" width="100" height="40" as="geometry" />
        </mxCell>
        <mxCell id="TbHaH5Ds3cbBmDt9sqUb-28" value="id_Detalle" style="ellipse;whiteSpace=wrap;html=1;align=center;strokeWidth=3;" parent="1" vertex="1">
          <mxGeometry x="30" y="240" width="100" height="40" as="geometry" />
        </mxCell>
        <mxCell id="TbHaH5Ds3cbBmDt9sqUb-32" value="id_Producto" style="ellipse;whiteSpace=wrap;html=1;align=center;strokeWidth=3;dashed=1;" parent="1" vertex="1">
          <mxGeometry x="142.25" y="240" width="100" height="40" as="geometry" />
        </mxCell>
        <mxCell id="TbHaH5Ds3cbBmDt9sqUb-34" value="Cantidad" style="ellipse;whiteSpace=wrap;html=1;align=center;" parent="1" vertex="1">
          <mxGeometry x="255.5" y="240" width="100" height="40" as="geometry" />
        </mxCell>
        <mxCell id="TbHaH5Ds3cbBmDt9sqUb-36" value="SubTotal" style="ellipse;whiteSpace=wrap;html=1;align=center;" parent="1" vertex="1">
          <mxGeometry x="362.5" y="240" width="100" height="40" as="geometry" />
        </mxCell>
        <mxCell id="TbHaH5Ds3cbBmDt9sqUb-87" value="" style="rounded=0;orthogonalLoop=1;jettySize=auto;html=1;endArrow=none;endFill=0;" parent="1" source="TbHaH5Ds3cbBmDt9sqUb-47" target="TbHaH5Ds3cbBmDt9sqUb-76" edge="1">
          <mxGeometry relative="1" as="geometry" />
        </mxCell>
        <mxCell id="TbHaH5Ds3cbBmDt9sqUb-88" value="" style="rounded=0;orthogonalLoop=1;jettySize=auto;html=1;endArrow=none;endFill=0;" parent="1" source="TbHaH5Ds3cbBmDt9sqUb-47" target="TbHaH5Ds3cbBmDt9sqUb-78" edge="1">
          <mxGeometry relative="1" as="geometry" />
        </mxCell>
        <mxCell id="TbHaH5Ds3cbBmDt9sqUb-47" value="DetalleVenta" style="whiteSpace=wrap;html=1;align=center;" parent="1" vertex="1">
          <mxGeometry x="557" y="898" width="100" height="40" as="geometry" />
        </mxCell>
        <mxCell id="TbHaH5Ds3cbBmDt9sqUb-85" value="" style="rounded=0;orthogonalLoop=1;jettySize=auto;html=1;endArrow=none;endFill=0;" parent="1" source="TbHaH5Ds3cbBmDt9sqUb-68" target="TbHaH5Ds3cbBmDt9sqUb-73" edge="1">
          <mxGeometry relative="1" as="geometry" />
        </mxCell>
        <mxCell id="TbHaH5Ds3cbBmDt9sqUb-89" value="" style="rounded=0;orthogonalLoop=1;jettySize=auto;html=1;endArrow=none;endFill=0;" parent="1" source="TbHaH5Ds3cbBmDt9sqUb-49" target="TbHaH5Ds3cbBmDt9sqUb-78" edge="1">
          <mxGeometry relative="1" as="geometry" />
        </mxCell>
        <mxCell id="TbHaH5Ds3cbBmDt9sqUb-90" value="" style="rounded=0;orthogonalLoop=1;jettySize=auto;html=1;endArrow=none;endFill=0;" parent="1" source="TbHaH5Ds3cbBmDt9sqUb-49" target="TbHaH5Ds3cbBmDt9sqUb-77" edge="1">
          <mxGeometry relative="1" as="geometry" />
        </mxCell>
        <mxCell id="TbHaH5Ds3cbBmDt9sqUb-49" value="PRODUCTO" style="whiteSpace=wrap;html=1;align=center;" parent="1" vertex="1">
          <mxGeometry x="704.5" y="800" width="100" height="40" as="geometry" />
        </mxCell>
        <mxCell id="TbHaH5Ds3cbBmDt9sqUb-84" value="" style="rounded=0;orthogonalLoop=1;jettySize=auto;html=1;endArrow=none;endFill=0;" parent="1" source="TbHaH5Ds3cbBmDt9sqUb-50" target="TbHaH5Ds3cbBmDt9sqUb-73" edge="1">
          <mxGeometry relative="1" as="geometry" />
        </mxCell>
        <mxCell id="TbHaH5Ds3cbBmDt9sqUb-50" value="CLIENTE" style="whiteSpace=wrap;html=1;align=center;" parent="1" vertex="1">
          <mxGeometry x="422.25" y="630" width="100" height="40" as="geometry" />
        </mxCell>
        <mxCell id="TbHaH5Ds3cbBmDt9sqUb-91" value="" style="rounded=0;orthogonalLoop=1;jettySize=auto;html=1;endArrow=none;endFill=0;" parent="1" source="TbHaH5Ds3cbBmDt9sqUb-51" target="TbHaH5Ds3cbBmDt9sqUb-77" edge="1">
          <mxGeometry relative="1" as="geometry" />
        </mxCell>
        <mxCell id="TbHaH5Ds3cbBmDt9sqUb-51" value="LABORATORIO" style="whiteSpace=wrap;html=1;align=center;" parent="1" vertex="1">
          <mxGeometry x="704.5" y="630" width="100" height="40" as="geometry" />
        </mxCell>
        <mxCell id="TbHaH5Ds3cbBmDt9sqUb-61" style="rounded=0;orthogonalLoop=1;jettySize=auto;html=1;endArrow=none;endFill=0;" parent="1" target="TbHaH5Ds3cbBmDt9sqUb-65" edge="1">
          <mxGeometry relative="1" as="geometry">
            <mxPoint x="591.5889272687368" y="398" as="sourcePoint" />
          </mxGeometry>
        </mxCell>
        <mxCell id="TbHaH5Ds3cbBmDt9sqUb-62" style="rounded=0;orthogonalLoop=1;jettySize=auto;html=1;endArrow=none;endFill=0;" parent="1" edge="1">
          <mxGeometry relative="1" as="geometry">
            <mxPoint x="635" y="398" as="sourcePoint" />
            <mxPoint x="635" y="350.0000000000002" as="targetPoint" />
          </mxGeometry>
        </mxCell>
        <mxCell id="TbHaH5Ds3cbBmDt9sqUb-63" style="rounded=0;orthogonalLoop=1;jettySize=auto;html=1;endArrow=none;endFill=0;" parent="1" source="TbHaH5Ds3cbBmDt9sqUb-64" target="TbHaH5Ds3cbBmDt9sqUb-67" edge="1">
          <mxGeometry relative="1" as="geometry" />
        </mxCell>
        <mxCell id="4rSz91P9uJGo4VCgbDfb-2" style="rounded=0;orthogonalLoop=1;jettySize=auto;html=1;endArrow=none;endFill=0;" edge="1" parent="1" source="TbHaH5Ds3cbBmDt9sqUb-64" target="TbHaH5Ds3cbBmDt9sqUb-19">
          <mxGeometry relative="1" as="geometry" />
        </mxCell>
        <mxCell id="4rSz91P9uJGo4VCgbDfb-3" style="rounded=0;orthogonalLoop=1;jettySize=auto;html=1;endArrow=none;endFill=0;" edge="1" parent="1" source="TbHaH5Ds3cbBmDt9sqUb-64" target="TbHaH5Ds3cbBmDt9sqUb-20">
          <mxGeometry relative="1" as="geometry" />
        </mxCell>
        <mxCell id="TbHaH5Ds3cbBmDt9sqUb-64" value="FACTURA" style="whiteSpace=wrap;html=1;align=center;" parent="1" vertex="1">
          <mxGeometry x="575" y="398" width="100" height="40" as="geometry" />
        </mxCell>
        <mxCell id="TbHaH5Ds3cbBmDt9sqUb-65" value="id_Factura" style="ellipse;whiteSpace=wrap;html=1;align=center;strokeWidth=3;" parent="1" vertex="1">
          <mxGeometry x="480" y="350" width="100" height="40" as="geometry" />
        </mxCell>
        <mxCell id="TbHaH5Ds3cbBmDt9sqUb-66" value="id_DetalleVenta" style="ellipse;whiteSpace=wrap;html=1;align=center;strokeWidth=3;dashed=1;" parent="1" vertex="1">
          <mxGeometry x="575" y="310" width="100" height="40" as="geometry" />
        </mxCell>
        <mxCell id="TbHaH5Ds3cbBmDt9sqUb-67" value="// DATOS PARA FACTURAR//" style="ellipse;whiteSpace=wrap;html=1;align=center;" parent="1" vertex="1">
          <mxGeometry x="690" y="350" width="100" height="40" as="geometry" />
        </mxCell>
        <mxCell id="TbHaH5Ds3cbBmDt9sqUb-68" value="FACTURA" style="whiteSpace=wrap;html=1;align=center;" parent="1" vertex="1">
          <mxGeometry x="422.25" y="800" width="100" height="40" as="geometry" />
        </mxCell>
        <mxCell id="TbHaH5Ds3cbBmDt9sqUb-73" value="Recibe" style="shape=rhombus;perimeter=rhombusPerimeter;whiteSpace=wrap;html=1;align=center;" parent="1" vertex="1">
          <mxGeometry x="412.25" y="700" width="120" height="60" as="geometry" />
        </mxCell>
        <mxCell id="4rSz91P9uJGo4VCgbDfb-1" style="rounded=0;orthogonalLoop=1;jettySize=auto;html=1;endArrow=none;endFill=0;" edge="1" parent="1" source="TbHaH5Ds3cbBmDt9sqUb-76" target="TbHaH5Ds3cbBmDt9sqUb-68">
          <mxGeometry relative="1" as="geometry" />
        </mxCell>
        <mxCell id="TbHaH5Ds3cbBmDt9sqUb-76" value="tiene" style="shape=rhombus;perimeter=rhombusPerimeter;whiteSpace=wrap;html=1;align=center;" parent="1" vertex="1">
          <mxGeometry x="412.25" y="888" width="120" height="60" as="geometry" />
        </mxCell>
        <mxCell id="TbHaH5Ds3cbBmDt9sqUb-77" value="es_de" style="shape=rhombus;perimeter=rhombusPerimeter;whiteSpace=wrap;html=1;align=center;" parent="1" vertex="1">
          <mxGeometry x="694.5" y="700" width="120" height="60" as="geometry" />
        </mxCell>
        <mxCell id="TbHaH5Ds3cbBmDt9sqUb-78" value="agarra" style="shape=rhombus;perimeter=rhombusPerimeter;whiteSpace=wrap;html=1;align=center;" parent="1" vertex="1">
          <mxGeometry x="694.5" y="890" width="120" height="60" as="geometry" />
        </mxCell>
        <mxCell id="TbHaH5Ds3cbBmDt9sqUb-92" value="1&lt;div&gt;:&lt;/div&gt;&lt;div&gt;N&lt;/div&gt;" style="text;html=1;align=center;verticalAlign=middle;resizable=0;points=[];autosize=1;strokeColor=none;fillColor=none;" parent="1" vertex="1">
          <mxGeometry x="660" y="700" width="30" height="60" as="geometry" />
        </mxCell>
        <mxCell id="TbHaH5Ds3cbBmDt9sqUb-96" value="N : 1" style="text;html=1;align=center;verticalAlign=middle;resizable=0;points=[];autosize=1;strokeColor=none;fillColor=none;" parent="1" vertex="1">
          <mxGeometry x="447.25" y="948" width="50" height="30" as="geometry" />
        </mxCell>
        <mxCell id="TbHaH5Ds3cbBmDt9sqUb-97" value="N : 1" style="text;html=1;align=center;verticalAlign=middle;resizable=0;points=[];autosize=1;strokeColor=none;fillColor=none;" parent="1" vertex="1">
          <mxGeometry x="729.5" y="948" width="50" height="30" as="geometry" />
        </mxCell>
        <mxCell id="4rSz91P9uJGo4VCgbDfb-4" value="1&lt;div&gt;:&lt;/div&gt;&lt;div&gt;N&lt;/div&gt;" style="text;html=1;align=center;verticalAlign=middle;resizable=0;points=[];autosize=1;strokeColor=none;fillColor=none;" vertex="1" parent="1">
          <mxGeometry x="380" y="700" width="30" height="60" as="geometry" />
        </mxCell>
      </root>
    </mxGraphModel>
  </diagram>
  <diagram id="C5RBs43oDa-KdzZeNtuy" name="Page-1">
    <mxGraphModel dx="1231" dy="730" grid="1" gridSize="10" guides="1" tooltips="1" connect="1" arrows="1" fold="1" page="1" pageScale="1" pageWidth="827" pageHeight="1169" math="0" shadow="0">
      <root>
        <mxCell id="WIyWlLk6GJQsqaUBKTNV-0" />
        <mxCell id="WIyWlLk6GJQsqaUBKTNV-1" parent="WIyWlLk6GJQsqaUBKTNV-0" />
        <mxCell id="a7b83R8CFXq_D8iALxp--4" style="rounded=0;orthogonalLoop=1;jettySize=auto;html=1;" parent="WIyWlLk6GJQsqaUBKTNV-1" source="a7b83R8CFXq_D8iALxp--0" target="a7b83R8CFXq_D8iALxp--1" edge="1">
          <mxGeometry relative="1" as="geometry" />
        </mxCell>
        <mxCell id="a7b83R8CFXq_D8iALxp--0" value="Inicio" style="rounded=1;whiteSpace=wrap;html=1;" parent="WIyWlLk6GJQsqaUBKTNV-1" vertex="1">
          <mxGeometry x="610" y="100" width="120" height="60" as="geometry" />
        </mxCell>
        <mxCell id="a7b83R8CFXq_D8iALxp--5" value="" style="rounded=0;orthogonalLoop=1;jettySize=auto;html=1;" parent="WIyWlLk6GJQsqaUBKTNV-1" source="a7b83R8CFXq_D8iALxp--1" target="a7b83R8CFXq_D8iALxp--2" edge="1">
          <mxGeometry relative="1" as="geometry" />
        </mxCell>
        <mxCell id="a7b83R8CFXq_D8iALxp--7" value="" style="rounded=0;orthogonalLoop=1;jettySize=auto;html=1;" parent="WIyWlLk6GJQsqaUBKTNV-1" source="a7b83R8CFXq_D8iALxp--1" target="a7b83R8CFXq_D8iALxp--6" edge="1">
          <mxGeometry relative="1" as="geometry" />
        </mxCell>
        <mxCell id="a7b83R8CFXq_D8iALxp--9" style="rounded=0;orthogonalLoop=1;jettySize=auto;html=1;" parent="WIyWlLk6GJQsqaUBKTNV-1" source="a7b83R8CFXq_D8iALxp--1" target="a7b83R8CFXq_D8iALxp--8" edge="1">
          <mxGeometry relative="1" as="geometry" />
        </mxCell>
        <mxCell id="a7b83R8CFXq_D8iALxp--62" style="rounded=0;orthogonalLoop=1;jettySize=auto;html=1;" parent="WIyWlLk6GJQsqaUBKTNV-1" source="a7b83R8CFXq_D8iALxp--1" target="a7b83R8CFXq_D8iALxp--61" edge="1">
          <mxGeometry relative="1" as="geometry" />
        </mxCell>
        <mxCell id="a7b83R8CFXq_D8iALxp--1" value="Inventario" style="rounded=1;whiteSpace=wrap;html=1;" parent="WIyWlLk6GJQsqaUBKTNV-1" vertex="1">
          <mxGeometry x="610" y="200" width="120" height="60" as="geometry" />
        </mxCell>
        <mxCell id="a7b83R8CFXq_D8iALxp--2" value="Editar Producto" style="rounded=1;whiteSpace=wrap;html=1;" parent="WIyWlLk6GJQsqaUBKTNV-1" vertex="1">
          <mxGeometry x="160" y="330" width="160" height="70" as="geometry" />
        </mxCell>
        <mxCell id="a7b83R8CFXq_D8iALxp--6" value="Eliminar" style="rounded=1;whiteSpace=wrap;html=1;fillColor=#f8cecc;strokeColor=#b85450;" parent="WIyWlLk6GJQsqaUBKTNV-1" vertex="1">
          <mxGeometry x="450" y="420" width="170" height="90" as="geometry" />
        </mxCell>
        <mxCell id="a7b83R8CFXq_D8iALxp--8" value="Agregar Producto" style="rounded=1;whiteSpace=wrap;html=1;" parent="WIyWlLk6GJQsqaUBKTNV-1" vertex="1">
          <mxGeometry x="720" y="430" width="160" height="100" as="geometry" />
        </mxCell>
        <mxCell id="a7b83R8CFXq_D8iALxp--100" style="rounded=0;orthogonalLoop=1;jettySize=auto;html=1;" parent="WIyWlLk6GJQsqaUBKTNV-1" source="a7b83R8CFXq_D8iALxp--61" target="a7b83R8CFXq_D8iALxp--98" edge="1">
          <mxGeometry relative="1" as="geometry" />
        </mxCell>
        <mxCell id="a7b83R8CFXq_D8iALxp--61" value="Realizar pedido" style="rounded=1;whiteSpace=wrap;html=1;" parent="WIyWlLk6GJQsqaUBKTNV-1" vertex="1">
          <mxGeometry x="960" y="390" width="150" height="90" as="geometry" />
        </mxCell>
        <mxCell id="a7b83R8CFXq_D8iALxp--63" value="L-N" style="text;html=1;align=center;verticalAlign=middle;resizable=0;points=[];autosize=1;strokeColor=none;fillColor=none;" parent="WIyWlLk6GJQsqaUBKTNV-1" vertex="1">
          <mxGeometry x="30" y="20" width="40" height="30" as="geometry" />
        </mxCell>
        <mxCell id="a7b83R8CFXq_D8iALxp--64" value="L-P" style="text;html=1;align=center;verticalAlign=middle;resizable=0;points=[];autosize=1;strokeColor=none;fillColor=none;" parent="WIyWlLk6GJQsqaUBKTNV-1" vertex="1">
          <mxGeometry x="570" y="340" width="40" height="30" as="geometry" />
        </mxCell>
        <mxCell id="a7b83R8CFXq_D8iALxp--65" value="" style="shape=step;perimeter=stepPerimeter;whiteSpace=wrap;html=1;fixedSize=1;size=10;" parent="WIyWlLk6GJQsqaUBKTNV-1" vertex="1">
          <mxGeometry x="36.67" y="90" width="33.33" height="20" as="geometry" />
        </mxCell>
        <mxCell id="a7b83R8CFXq_D8iALxp--69" value="" style="rounded=0;whiteSpace=wrap;html=1;" parent="WIyWlLk6GJQsqaUBKTNV-1" vertex="1">
          <mxGeometry x="36.67" y="120" width="23.33" height="30" as="geometry" />
        </mxCell>
        <mxCell id="a7b83R8CFXq_D8iALxp--70" value="" style="shape=table;startSize=0;container=1;collapsible=0;childLayout=tableLayout;fontSize=16;" parent="WIyWlLk6GJQsqaUBKTNV-1" vertex="1">
          <mxGeometry x="36.67" y="160" width="22.5" height="30" as="geometry" />
        </mxCell>
        <mxCell id="a7b83R8CFXq_D8iALxp--71" value="" style="shape=tableRow;horizontal=0;startSize=0;swimlaneHead=0;swimlaneBody=0;strokeColor=inherit;top=0;left=0;bottom=0;right=0;collapsible=0;dropTarget=0;fillColor=none;points=[[0,0.5],[1,0.5]];portConstraint=eastwest;fontSize=16;" parent="a7b83R8CFXq_D8iALxp--70" vertex="1">
          <mxGeometry width="22.5" height="9" as="geometry" />
        </mxCell>
        <mxCell id="a7b83R8CFXq_D8iALxp--72" value="" style="shape=partialRectangle;html=1;whiteSpace=wrap;connectable=0;strokeColor=inherit;overflow=hidden;fillColor=none;top=0;left=0;bottom=0;right=0;pointerEvents=1;fontSize=16;" parent="a7b83R8CFXq_D8iALxp--71" vertex="1">
          <mxGeometry width="23" height="9" as="geometry">
            <mxRectangle width="23" height="9" as="alternateBounds" />
          </mxGeometry>
        </mxCell>
        <mxCell id="a7b83R8CFXq_D8iALxp--75" value="" style="shape=tableRow;horizontal=0;startSize=0;swimlaneHead=0;swimlaneBody=0;strokeColor=inherit;top=0;left=0;bottom=0;right=0;collapsible=0;dropTarget=0;fillColor=none;points=[[0,0.5],[1,0.5]];portConstraint=eastwest;fontSize=16;" parent="a7b83R8CFXq_D8iALxp--70" vertex="1">
          <mxGeometry y="9" width="22.5" height="12" as="geometry" />
        </mxCell>
        <mxCell id="a7b83R8CFXq_D8iALxp--76" value="" style="shape=partialRectangle;html=1;whiteSpace=wrap;connectable=0;strokeColor=inherit;overflow=hidden;fillColor=none;top=0;left=0;bottom=0;right=0;pointerEvents=1;fontSize=16;" parent="a7b83R8CFXq_D8iALxp--75" vertex="1">
          <mxGeometry width="23" height="12" as="geometry">
            <mxRectangle width="23" height="12" as="alternateBounds" />
          </mxGeometry>
        </mxCell>
        <mxCell id="a7b83R8CFXq_D8iALxp--79" value="" style="shape=tableRow;horizontal=0;startSize=0;swimlaneHead=0;swimlaneBody=0;strokeColor=inherit;top=0;left=0;bottom=0;right=0;collapsible=0;dropTarget=0;fillColor=none;points=[[0,0.5],[1,0.5]];portConstraint=eastwest;fontSize=16;" parent="a7b83R8CFXq_D8iALxp--70" vertex="1">
          <mxGeometry y="21" width="22.5" height="9" as="geometry" />
        </mxCell>
        <mxCell id="a7b83R8CFXq_D8iALxp--80" value="" style="shape=partialRectangle;html=1;whiteSpace=wrap;connectable=0;strokeColor=inherit;overflow=hidden;fillColor=none;top=0;left=0;bottom=0;right=0;pointerEvents=1;fontSize=16;" parent="a7b83R8CFXq_D8iALxp--79" vertex="1">
          <mxGeometry width="23" height="9" as="geometry">
            <mxRectangle width="23" height="9" as="alternateBounds" />
          </mxGeometry>
        </mxCell>
        <mxCell id="a7b83R8CFXq_D8iALxp--84" value="&lt;font face=&quot;Times New Roman&quot;&gt;T&lt;/font&gt;" style="text;strokeColor=none;fillColor=none;html=1;fontSize=24;fontStyle=1;verticalAlign=middle;align=center;" parent="WIyWlLk6GJQsqaUBKTNV-1" vertex="1">
          <mxGeometry x="36.67" y="190" width="16.67" height="30" as="geometry" />
        </mxCell>
        <mxCell id="a7b83R8CFXq_D8iALxp--85" value="" style="shape=table;startSize=0;container=1;collapsible=0;childLayout=tableLayout;fontSize=16;fillColor=none;rowLines=1;columnLines=1;fixedRows=0;swimlaneHead=1;left=0;right=0;" parent="WIyWlLk6GJQsqaUBKTNV-1" vertex="1">
          <mxGeometry x="70" y="160" width="22.5" height="30" as="geometry" />
        </mxCell>
        <mxCell id="a7b83R8CFXq_D8iALxp--86" value="" style="shape=tableRow;horizontal=0;startSize=0;swimlaneHead=0;swimlaneBody=0;strokeColor=inherit;top=0;left=0;bottom=0;right=0;collapsible=0;dropTarget=0;fillColor=none;points=[[0,0.5],[1,0.5]];portConstraint=eastwest;fontSize=16;" parent="a7b83R8CFXq_D8iALxp--85" vertex="1">
          <mxGeometry width="22.5" height="9" as="geometry" />
        </mxCell>
        <mxCell id="a7b83R8CFXq_D8iALxp--87" value="" style="shape=partialRectangle;html=1;whiteSpace=wrap;connectable=0;strokeColor=inherit;overflow=hidden;fillColor=none;top=0;left=0;bottom=0;right=0;pointerEvents=1;fontSize=16;" parent="a7b83R8CFXq_D8iALxp--86" vertex="1">
          <mxGeometry width="23" height="9" as="geometry">
            <mxRectangle width="23" height="9" as="alternateBounds" />
          </mxGeometry>
        </mxCell>
        <mxCell id="a7b83R8CFXq_D8iALxp--88" value="" style="shape=tableRow;horizontal=0;startSize=0;swimlaneHead=0;swimlaneBody=0;strokeColor=inherit;top=0;left=0;bottom=0;right=0;collapsible=0;dropTarget=0;fillColor=none;points=[[0,0.5],[1,0.5]];portConstraint=eastwest;fontSize=16;" parent="a7b83R8CFXq_D8iALxp--85" vertex="1">
          <mxGeometry y="9" width="22.5" height="12" as="geometry" />
        </mxCell>
        <mxCell id="a7b83R8CFXq_D8iALxp--89" value="" style="shape=partialRectangle;html=1;whiteSpace=wrap;connectable=0;strokeColor=inherit;overflow=hidden;fillColor=none;top=0;left=0;bottom=0;right=0;pointerEvents=1;fontSize=16;" parent="a7b83R8CFXq_D8iALxp--88" vertex="1">
          <mxGeometry width="23" height="12" as="geometry">
            <mxRectangle width="23" height="12" as="alternateBounds" />
          </mxGeometry>
        </mxCell>
        <mxCell id="a7b83R8CFXq_D8iALxp--90" value="" style="shape=tableRow;horizontal=0;startSize=0;swimlaneHead=0;swimlaneBody=0;strokeColor=inherit;top=0;left=0;bottom=0;right=0;collapsible=0;dropTarget=0;fillColor=none;points=[[0,0.5],[1,0.5]];portConstraint=eastwest;fontSize=16;" parent="a7b83R8CFXq_D8iALxp--85" vertex="1">
          <mxGeometry y="21" width="22.5" height="9" as="geometry" />
        </mxCell>
        <mxCell id="a7b83R8CFXq_D8iALxp--91" value="" style="shape=partialRectangle;html=1;whiteSpace=wrap;connectable=0;strokeColor=inherit;overflow=hidden;fillColor=none;top=0;left=0;bottom=0;right=0;pointerEvents=1;fontSize=16;" parent="a7b83R8CFXq_D8iALxp--90" vertex="1">
          <mxGeometry width="23" height="9" as="geometry">
            <mxRectangle width="23" height="9" as="alternateBounds" />
          </mxGeometry>
        </mxCell>
        <mxCell id="a7b83R8CFXq_D8iALxp--92" value="L-P" style="text;html=1;align=center;verticalAlign=middle;resizable=0;points=[];autosize=1;strokeColor=none;fillColor=none;" parent="WIyWlLk6GJQsqaUBKTNV-1" vertex="1">
          <mxGeometry x="29.999999999999957" y="50" width="40" height="30" as="geometry" />
        </mxCell>
        <mxCell id="a7b83R8CFXq_D8iALxp--93" value="" style="shape=step;perimeter=stepPerimeter;whiteSpace=wrap;html=1;fixedSize=1;size=10;" parent="WIyWlLk6GJQsqaUBKTNV-1" vertex="1">
          <mxGeometry x="573.3299999999999" y="440" width="33.33" height="20" as="geometry" />
        </mxCell>
        <mxCell id="a7b83R8CFXq_D8iALxp--94" value="L-N" style="text;html=1;align=center;verticalAlign=middle;resizable=0;points=[];autosize=1;strokeColor=none;fillColor=none;" parent="WIyWlLk6GJQsqaUBKTNV-1" vertex="1">
          <mxGeometry x="410" y="290" width="40" height="30" as="geometry" />
        </mxCell>
        <mxCell id="a7b83R8CFXq_D8iALxp--96" value="L-N" style="text;html=1;align=center;verticalAlign=middle;resizable=0;points=[];autosize=1;strokeColor=none;fillColor=none;" parent="WIyWlLk6GJQsqaUBKTNV-1" vertex="1">
          <mxGeometry x="760" y="370" width="40" height="30" as="geometry" />
        </mxCell>
        <mxCell id="a7b83R8CFXq_D8iALxp--97" value="L-N" style="text;html=1;align=center;verticalAlign=middle;resizable=0;points=[];autosize=1;strokeColor=none;fillColor=none;" parent="WIyWlLk6GJQsqaUBKTNV-1" vertex="1">
          <mxGeometry x="880" y="325" width="40" height="30" as="geometry" />
        </mxCell>
        <mxCell id="a7b83R8CFXq_D8iALxp--98" value="Buscar Producto" style="rounded=1;whiteSpace=wrap;html=1;fillColor=#f8cecc;strokeColor=#b85450;" parent="WIyWlLk6GJQsqaUBKTNV-1" vertex="1">
          <mxGeometry x="1190" y="290" width="170" height="70" as="geometry" />
        </mxCell>
        <mxCell id="a7b83R8CFXq_D8iALxp--99" value="" style="shape=step;perimeter=stepPerimeter;whiteSpace=wrap;html=1;fixedSize=1;size=10;" parent="WIyWlLk6GJQsqaUBKTNV-1" vertex="1">
          <mxGeometry x="1320" y="300" width="33.33" height="20" as="geometry" />
        </mxCell>
        <mxCell id="a7b83R8CFXq_D8iALxp--101" value="" style="rounded=0;whiteSpace=wrap;html=1;" parent="WIyWlLk6GJQsqaUBKTNV-1" vertex="1">
          <mxGeometry x="290" y="340" width="23.33" height="30" as="geometry" />
        </mxCell>
        <mxCell id="a7b83R8CFXq_D8iALxp--102" value="" style="rounded=0;whiteSpace=wrap;html=1;" parent="WIyWlLk6GJQsqaUBKTNV-1" vertex="1">
          <mxGeometry x="850" y="440" width="23.33" height="30" as="geometry" />
        </mxCell>
        <mxCell id="a7b83R8CFXq_D8iALxp--103" value="" style="rounded=0;whiteSpace=wrap;html=1;" parent="WIyWlLk6GJQsqaUBKTNV-1" vertex="1">
          <mxGeometry x="1080" y="400" width="23.33" height="30" as="geometry" />
        </mxCell>
      </root>
    </mxGraphModel>
  </diagram>
</mxfile>
